# xmcd
#
# Track frame offsets:
# 150
# 15168
# 31584
# 48576
# 67054
# 83905
# 102733
# 118723
# 135549
# 153531
#
# Disc length: 2313 seconds
#
#
# Revision: 0
# Processed by: cddbd v1.5.2PL0 Copyright (c) Steve Scherf et al.
# Submitted via: FreeRIP 2.50 
#
DISCID=7e09070a
DTITLE=Jimmy Wayne - Sara Smile
DYEAR=2009
DGENRE=Country
TTITLE0=Things I Believe
TTITLE1=All The Time In The World
TTITLE2=Sara Smile
TTITLE3=Just Knowing You Love Me
TTITLE4=Just Look At You
TTITLE5=Counting The Days
TTITLE6=There's A Memory
TTITLE7=Belongs To You
TTITLE8=I'll Never Leave You
TTITLE9=Elephant Ears
EXTD=www.jimmywayne.com
EXTT0=
EXTT1=
EXTT2=
EXTT3=
EXTT4=
EXTT5=
EXTT6=
EXTT7=
EXTT8=
EXTT9=
PLAYORDER=
